<?xml version="1.0" encoding="utf-8"?>
<!-- Generator: Adobe Illustrator 20.1.0, SVG Export Plug-In . SVG Version: 6.00 Build 0)  -->
<svg version="1.1" id="Layer_1" xmlns="http://www.w3.org/2000/svg" xmlns:xlink="http://www.w3.org/1999/xlink" x="0px" y="0px"
	 viewBox="0 0 700 210" style="enable-background:new 0 0 700 210;" xml:space="preserve">
<style type="text/css">
	.st0{display:none;fill:#0069A6;}
	.st1{fill:#FFFFFF;}
	.st2{fill:#FFCE00;}
</style>
<rect class="st0" width="700" height="210"/>
<g>
	<path class="st1" d="M215.5,157.1v-12.4l2.4-0.2c4-0.3,6.7-1.3,7.9-3c1.2-1.7,1.9-5.1,1.9-10.3V79.4c0-5.2-0.6-8.6-1.9-10.3
		c-1.2-1.7-3.8-2.7-7.9-3l-2.4-0.2V53.5h39h48.6l7.5,15.6l7.5,15.6l-10.4,5c-5.4-8.2-11.4-13.9-17.9-17.3c-6-3.2-13.8-4.8-23.4-5
		c-4.9-0.1-8.1,0.6-9.7,2.1c-1.5,1.5-2.3,4.7-2.3,9.7v14.8h4.8c6.2,0,10.1-1,11.9-3c1.8-2,2.7-6.5,2.9-13.5h11.9v23.6v23.6H274
		c-0.5-6.7-1.9-11.1-4.1-13.4c-2.2-2.3-6.3-3.4-12.4-3.4h-3v23.3c0,5.1,0.8,8.3,2.3,9.8c1.5,1.5,4.9,2.1,9.9,1.9
		c9.6-0.4,17.7-2.4,24.2-6c7.3-4.1,14.2-11.1,20.8-20.9l10.9,5.3l-8.3,17.8l-8.4,17.8h-51.4H215.5z"/>
	<path class="st1" d="M431.9,126.6c-4.4,10.6-10.9,18.8-19.5,24.5c-8.6,5.7-18.8,8.5-30.6,8.5c-15.6,0-28.6-5.1-39-15.2
		c-10.3-10.2-15.5-23-15.5-38.4c0-16.5,4.8-29.8,14.4-39.9c9.6-10.1,22.3-15.1,38-15.1c9.2,0,17.5,2,24.9,6l1.8-3.5h9.1l13.7,36
		l-11.9,4.2c-4.5-9.2-9.6-16.3-15.3-21.2c-5.7-4.9-11.7-7.4-17.9-7.4c-8.4,0-15,3.6-19.9,10.7c-4.9,7.1-7.4,16.7-7.4,28.9
		c0,12.1,2.6,21.7,7.9,28.8c5.2,7.1,12.4,10.6,21.4,10.6c6.7,0,12.9-2,18.6-6.1c5.8-4.1,10.8-10.1,15.1-17.9L431.9,126.6z"/>
	<path class="st1" d="M551.4,144.4c-3.4-0.3-6.3-1.4-8.6-3c-2.3-1.7-5.5-5.1-9.5-10.2l-16.5-21.1c4.7-1.4,8.9-3.5,12.7-6.1
		c8.3-5.8,12.4-13.1,12.4-21.8c0-9.6-3.6-16.7-10.8-21.5c-7.2-4.8-18-7.1-32.5-7.1H464h-26.5V66l2.6,0.2c4.3,0.4,7.2,1.4,8.5,3
		c1.4,1.7,2,5.1,2,10.2v51.8c0,5.2-0.7,8.6-2,10.2c-1.3,1.7-4.2,2.7-8.5,3l-2.6,0.2v12.4h27.4h27.4v-12.4l-3-0.2
		c-4.8-0.3-8-1.3-9.5-2.9c-1.5-1.7-2.2-5.1-2.2-10.3v-18.5h9l32,44.4h25h9.9v-12.4L551.4,144.4z M505.8,93.9
		c-4.5,2.7-10.7,4.1-18.7,4.1h-9.6V76.9c0-3.9,0.6-6.4,1.8-7.6c1.2-1.2,3.7-1.8,7.6-1.8h1.5c7.6,0,13.5,1.3,17.7,4
		c4.2,2.6,6.3,6.3,6.3,11.1C512.5,87.4,510.3,91.2,505.8,93.9z"/>
	<path class="st1" d="M632.8,88.4c-4.6-7.2-9.7-12.7-15.3-16.4c-5.6-3.7-11.4-5.6-17.5-5.6c-5.3,0-9.4,1-12.5,3.1
		c-3.1,2.1-4.6,4.9-4.6,8.5c0,2.6,1.9,4.7,5.7,6.5c3.8,1.7,10.9,3.6,21.2,5.8c15.4,3.2,26,7.1,31.7,11.7c5.7,4.6,8.5,11.6,8.5,20.9
		c0,10.5-4.1,19.3-12.3,26.2c-8.2,6.9-18.5,10.4-30.9,10.4c-10.5,0-19.6-2.8-27.2-8.3l-1.9,6.8h-9.2L556,119.8l11.9-3.6
		c3.5,8.4,8.8,15.2,15.9,20.3c7.1,5.1,14.7,7.7,22.9,7.7c6.1,0,10.9-1.2,14.4-3.8c3.5-2.5,5.3-5.9,5.3-10.2c0-3-1.9-5.4-5.6-7.2
		c-3.7-1.8-10.7-3.8-20.8-5.9c-15.6-3.2-26.3-7.1-32-11.8c-5.7-4.6-8.6-11.5-8.6-20.8c0-9.6,3.7-17.6,11.1-23.9
		c7.4-6.3,16.7-9.5,27.8-9.5c8.8,0,16.9,2.5,24.4,7.5l1.8-5h9.1l10.1,31L632.8,88.4z"/>
</g>
<g>
	<path class="st1" d="M205.4,53.5c0.8,0,1.6,0.1,2.3,0.4c0.7,0.3,1.3,0.7,1.9,1.3c0.5,0.5,0.9,1.2,1.2,1.9c0.3,0.7,0.4,1.4,0.4,2.2
		c0,0.8-0.1,1.5-0.4,2.3c-0.3,0.7-0.7,1.3-1.3,1.9c-0.6,0.5-1.2,1-1.9,1.3c-0.7,0.3-1.5,0.4-2.2,0.4c-0.8,0-1.5-0.2-2.2-0.5
		c-0.7-0.3-1.3-0.7-1.9-1.3c-0.5-0.5-1-1.2-1.2-1.9c-0.3-0.7-0.4-1.4-0.4-2.2c0-0.5,0.1-1.1,0.2-1.6c0.1-0.5,0.4-1,0.6-1.5
		c0.5-0.9,1.2-1.6,2.1-2.1C203.4,53.8,204.3,53.5,205.4,53.5z M205.4,54.5c-0.7,0-1.3,0.1-1.8,0.3c-0.6,0.2-1.1,0.6-1.5,1
		c-0.5,0.5-0.8,1-1.1,1.6c-0.3,0.6-0.4,1.2-0.4,1.9c0,0.6,0.1,1.3,0.4,1.8c0.2,0.6,0.6,1.1,1,1.5c0.5,0.5,1,0.8,1.6,1.1
		c0.6,0.3,1.2,0.4,1.9,0.4c0.6,0,1.2-0.1,1.8-0.4c0.6-0.2,1.1-0.6,1.6-1.1c0.5-0.4,0.8-0.9,1.1-1.5c0.2-0.6,0.4-1.2,0.4-1.8
		c0-0.7-0.1-1.3-0.3-1.9c-0.2-0.6-0.6-1.1-1-1.6c-0.5-0.5-1-0.8-1.6-1.1C206.7,54.6,206.1,54.5,205.4,54.5z M203,56h2.5
		c0.9,0,1.6,0.2,2.1,0.5c0.5,0.3,0.7,0.8,0.7,1.4c0,0.4-0.1,0.8-0.4,1.1c-0.3,0.3-0.6,0.5-1,0.6l1.4,2.9h-1.8l-1.2-2.6h-0.8v2.6H203
		V56z M204.5,57v1.9h0.8c0.5,0,0.8-0.1,1-0.2c0.2-0.1,0.3-0.4,0.3-0.7c0-0.3-0.1-0.6-0.3-0.7s-0.6-0.2-1.1-0.2H204.5z"/>
</g>
<path class="st2" d="M205.2,155.7L189.3,133c-0.8-1.2-2.1-1.8-3.5-1.8H80.2c-2.4,0-4.3-1.9-4.3-4.3V83.7c0-2.4,1.9-4.3,4.3-4.3h56.1
	c2.4,0,4.3,1.9,4.3,4.3v8.6c0,2.4-1.9,4.3-4.3,4.3H81c-0.7,0-1.1,0.8-0.7,1.4l15.9,22.7c0.8,1.2,2.1,1.8,3.5,1.8h49.5
	c9.5,0,17.3-7.7,17.3-17.3V70.8c0-9.5-7.7-17.3-17.3-17.3h-82c-9.5,0-17.3,7.7-17.3,17.3l0,69c0,9.5,7.7,17.3,17.3,17.3l137.3,0
	C205.2,157.1,205.6,156.3,205.2,155.7z"/>
</svg>
